<svg width="513" height="512" viewBox="0 0 513 512" fill="none" xmlns="http://www.w3.org/2000/svg">
<path d="M434.44 93.0246C401.24 77.788 366.207 66.9137 330.216 60.6726C329.89 60.6177 329.554 60.6651 329.257 60.8084C328.959 60.9516 328.712 61.1837 328.552 61.4726C324.04 69.4726 319.048 79.9366 315.56 88.1286C276.763 82.2409 237.3 82.2409 198.504 88.1286C194.613 79.0028 190.211 70.1033 185.32 61.4726C185.155 61.1869 184.909 60.9575 184.612 60.8147C184.315 60.6719 183.981 60.6224 183.656 60.6726C147.658 66.8883 112.622 77.7637 79.4315 93.0246C79.1476 93.133 78.9101 93.3366 78.7595 93.6006C12.3915 192.769 -5.81646 289.505 3.11155 385.025C3.14355 385.473 3.43155 385.921 3.78355 386.209C42.431 414.836 85.6587 436.693 131.624 450.849C131.948 450.951 132.297 450.947 132.619 450.838C132.941 450.729 133.22 450.519 133.416 450.241C143.272 436.801 152.04 422.625 159.592 407.713C159.696 407.509 159.755 407.286 159.766 407.057C159.776 406.829 159.738 406.601 159.653 406.389C159.568 406.177 159.439 405.985 159.274 405.827C159.108 405.669 158.911 405.548 158.696 405.473C144.909 400.174 131.556 393.808 118.76 386.433C118.526 386.297 118.329 386.106 118.187 385.876C118.046 385.647 117.963 385.385 117.947 385.116C117.932 384.846 117.983 384.577 118.097 384.332C118.21 384.087 118.383 383.874 118.6 383.713C121.288 381.697 123.976 379.585 126.536 377.473C126.762 377.291 127.033 377.174 127.321 377.134C127.608 377.095 127.901 377.134 128.168 377.249C211.976 415.521 302.696 415.521 385.48 377.249C385.755 377.125 386.06 377.081 386.359 377.121C386.659 377.16 386.941 377.282 387.176 377.473C389.736 379.585 392.424 381.697 395.112 383.713C395.329 383.872 395.504 384.082 395.621 384.326C395.737 384.569 395.792 384.838 395.779 385.107C395.766 385.377 395.687 385.639 395.548 385.87C395.409 386.101 395.215 386.295 394.984 386.433C382.215 393.874 368.846 400.233 355.016 405.441C354.801 405.523 354.607 405.65 354.445 405.812C354.283 405.975 354.158 406.169 354.076 406.384C353.995 406.598 353.959 406.827 353.972 407.056C353.985 407.285 354.046 407.509 354.152 407.713C361.832 422.593 370.632 436.801 380.296 450.241C380.491 450.519 380.77 450.729 381.092 450.838C381.414 450.947 381.763 450.951 382.088 450.849C428.129 436.737 471.427 414.877 510.12 386.209C510.312 386.073 510.472 385.896 510.588 385.692C510.704 385.487 510.773 385.259 510.792 385.025C521.48 274.593 492.904 178.657 435.08 93.6326C435.021 93.4922 434.934 93.3655 434.824 93.2608C434.714 93.1561 434.583 93.0756 434.44 93.0246V93.0246ZM172.104 326.849C146.856 326.849 126.088 303.681 126.088 275.265C126.088 246.817 146.472 223.649 172.104 223.649C197.928 223.649 218.504 247.009 218.12 275.265C218.12 303.681 197.736 326.849 172.104 326.849ZM342.216 326.849C317 326.849 296.2 303.681 296.2 275.265C296.2 246.817 316.584 223.649 342.216 223.649C368.04 223.649 388.648 247.009 388.232 275.265C388.232 303.681 368.04 326.849 342.216 326.849Z" fill="white"/>
</svg>
