<svg width="512" height="513" viewBox="0 0 512 513" fill="none" xmlns="http://www.w3.org/2000/svg">
<path d="M256.024 0C186.498 0 177.773 0.304008 150.466 1.54669C123.212 2.7947 104.609 7.10941 88.3316 13.4401C71.4941 19.9789 57.2113 28.7256 42.9818 42.9604C28.7416 57.1899 19.9949 71.4727 13.4348 88.3049C7.08807 104.588 2.76803 123.196 1.54135 150.439C0.320001 177.746 0 186.477 0 256.003C0 325.529 0.309341 334.227 1.54669 361.534C2.80003 388.788 7.11474 407.391 13.4401 423.668C19.9842 440.506 28.731 454.789 42.9658 469.018C57.1899 483.258 71.4727 492.026 88.2996 498.565C104.588 504.896 123.196 509.211 150.444 510.459C177.751 511.701 186.471 512.005 255.992 512.005C325.523 512.005 334.222 511.701 361.529 510.459C388.783 509.211 407.407 504.896 423.695 498.565C440.527 492.026 454.789 483.258 469.013 469.018C483.253 454.789 492 440.506 498.56 423.674C504.853 407.391 509.173 388.783 510.453 361.54C511.68 334.233 512 325.529 512 256.003C512 186.477 511.68 177.751 510.453 150.444C509.173 123.191 504.853 104.588 498.56 88.3102C492 71.4727 483.253 57.1899 469.013 42.9604C454.773 28.7203 440.533 19.9735 423.679 13.4401C407.359 7.10941 388.745 2.7947 361.492 1.54669C334.185 0.304008 325.491 0 255.944 0H256.024ZM233.058 46.1338C239.875 46.1231 247.48 46.1338 256.024 46.1338C324.377 46.1338 332.478 46.3792 359.47 47.6058C384.431 48.7472 397.977 52.9179 407.002 56.4219C418.948 61.062 427.466 66.6087 436.421 75.5688C445.381 84.5289 450.927 93.0623 455.578 105.009C459.082 114.023 463.258 127.569 464.394 152.53C465.621 179.517 465.887 187.623 465.887 255.944C465.887 324.265 465.621 332.371 464.394 359.358C463.253 384.319 459.082 397.865 455.578 406.879C450.938 418.826 445.381 427.332 436.421 436.287C427.46 445.247 418.954 450.794 407.002 455.434C397.988 458.954 384.431 463.114 359.47 464.255C332.483 465.482 324.377 465.749 256.024 465.749C187.666 465.749 179.565 465.482 152.578 464.255C127.617 463.103 114.071 458.933 105.041 455.429C93.0943 450.789 84.5609 445.242 75.6008 436.282C66.6407 427.322 61.094 418.81 56.4433 406.858C52.9392 397.844 48.7632 384.297 47.6272 359.337C46.4005 332.35 46.1551 324.243 46.1551 255.88C46.1551 187.517 46.4005 179.453 47.6272 152.466C48.7685 127.505 52.9392 113.959 56.4433 104.934C61.0833 92.9876 66.6407 84.4542 75.6008 75.4941C84.5609 66.534 93.0943 60.9873 105.041 56.3366C114.065 52.8165 127.617 48.6565 152.578 47.5098C176.194 46.4432 185.346 46.1231 233.058 46.0698V46.1338ZM392.676 88.6409C375.716 88.6409 361.956 102.385 361.956 119.351C361.956 136.311 375.716 150.071 392.676 150.071C409.636 150.071 423.396 136.311 423.396 119.351C423.396 102.39 409.636 88.6303 392.676 88.6303V88.6409ZM256.024 124.535C183.421 124.535 124.556 183.399 124.556 256.003C124.556 328.606 183.421 387.444 256.024 387.444C328.627 387.444 387.471 328.606 387.471 256.003C387.471 183.399 328.622 124.535 256.019 124.535H256.024ZM256.024 170.668C303.15 170.668 341.358 208.872 341.358 256.003C341.358 303.128 303.15 341.337 256.024 341.337C208.893 341.337 170.69 303.128 170.69 256.003C170.69 208.872 208.893 170.668 256.024 170.668V170.668Z" fill="white"/>
</svg>
