<svg width="512" height="512" viewBox="0 0 512 512" fill="none" xmlns="http://www.w3.org/2000/svg">
<path d="M0 36.6764C0 16.426 16.8324 0 37.5973 0H474.403C495.167 0 512 16.4261 512 36.6765V475.324C512 495.581 495.167 512 474.403 512L37.5973 512C16.8324 512 0 495.581 0 475.323V36.6764ZM158.188 428.597V197.4H81.3427V428.597H158.188ZM119.765 165.834C146.563 165.834 163.242 148.081 163.242 125.895C162.742 103.209 146.563 85.9479 120.273 85.9479C93.9869 85.9479 76.8 103.209 76.8 125.895C76.8 148.081 93.4757 165.834 119.264 165.834H119.765ZM276.845 428.597V299.487C276.845 292.577 277.344 285.674 279.373 280.735C284.928 266.929 297.573 252.631 318.801 252.631C346.608 252.631 357.732 273.832 357.732 304.912V428.597H434.57V296.032C434.57 225.019 396.659 191.975 346.1 191.975C305.337 191.975 287.059 214.38 276.847 230.133V230.93H276.334C276.502 230.666 276.673 230.401 276.847 230.133V197.4H200.002C201.01 219.094 200.002 428.597 200.002 428.597H276.845Z" fill="white"/>
</svg>
