<svg width="512" height="512" viewBox="0 0 512 512" fill="none" xmlns="http://www.w3.org/2000/svg">
<path d="M288.798 255.998C288.798 335.526 224.148 400 144.397 400C64.6448 400 0 335.546 0 255.998C0 176.449 64.6497 112 144.397 112C224.143 112 288.798 176.469 288.798 255.998ZM447.208 255.998C447.208 330.864 414.881 391.55 375.007 391.55C335.134 391.55 302.807 330.845 302.807 255.998C302.807 181.151 335.134 120.445 375.007 120.445C414.881 120.445 447.208 181.151 447.208 255.998ZM512 255.998C512 323.074 500.629 377.447 486.606 377.447C472.583 377.447 461.212 323.055 461.212 255.998C461.212 188.94 472.583 134.548 486.611 134.548C500.639 134.548 512 188.926 512 255.998Z" fill="white"/>
</svg>
