<svg width="512" height="512" viewBox="0 0 512 512" fill="none" xmlns="http://www.w3.org/2000/svg">
<path d="M288 -4.00543e-05L351.379 -0.000366211C355.955 22.88 368.659 51.7455 390.881 80.3819C412.655 108.441 441.508 128 480 128V192C423.892 192 381.73 165.966 352 133.484V352C352 440.366 280.366 512 192 512C103.634 512 32 440.366 32 352C32 263.634 103.634 192 192 192V256C138.981 256 96 298.981 96 352C96 405.019 138.981 448 192 448C245.019 448 288 405.019 288 352V-4.00543e-05Z" fill="white"/>
</svg>
