<svg width="513" height="512" viewBox="0 0 513 512" fill="none" xmlns="http://www.w3.org/2000/svg">
<path d="M258.637 63.9584C258.819 63.9588 259.015 63.9592 259.226 63.9597L261.491 63.9668C287.789 64.0634 421.072 65.0295 457.008 74.6906C479.038 80.5992 496.385 98.0122 502.273 120.116C505.514 132.26 507.773 148.4 509.348 165L509.653 168.326C509.901 171.1 510.13 173.88 510.342 176.651L510.588 179.969C512.691 209.22 512.937 236.593 512.965 242.582L512.968 243.39C512.969 243.456 512.969 243.564 512.969 243.564V244.018C512.969 244.018 512.969 244.126 512.968 244.192L512.965 245C512.936 251.215 512.672 280.46 510.342 310.934L510.079 314.262L509.8 317.594C508.215 335.916 505.838 354.11 502.273 367.467C496.385 389.57 479.038 406.987 457.008 412.892C419.874 422.879 278.795 423.578 259.226 423.627L257.719 423.63C257.595 423.63 257.487 423.63 257.393 423.63L256.778 423.631C256.778 423.631 256.637 423.63 256.544 423.63L254.711 423.627C244.821 423.602 203.898 423.411 161.041 421.94L155.562 421.745C154.648 421.711 153.733 421.677 152.819 421.642L147.333 421.425L141.86 421.193C106.356 419.635 72.5047 417.08 56.9325 412.892C34.903 406.987 17.5559 389.57 11.6681 367.467C8.10122 354.11 5.72327 335.916 4.13797 317.594L3.85838 314.262L3.59573 310.934C1.34891 281.568 1.02276 253.344 0.975411 245.769L0.969754 244.684C0.969357 244.587 0.969026 244.497 0.96875 244.415V243.168C0.969026 243.086 0.969357 242.996 0.969754 242.898L0.975411 241.814C1.01829 234.954 1.28985 211.157 3.00974 184.915L3.23236 181.623C3.27075 181.072 3.30979 180.521 3.34949 179.969L3.59573 176.651C3.80769 173.88 4.03675 171.1 4.28428 168.326L4.59027 165C6.16545 148.4 8.42548 132.26 11.6681 120.116C17.5559 98.0122 34.903 80.5992 56.9325 74.6906C72.5047 70.5041 106.356 67.9504 141.86 66.3926L147.333 66.1607L152.819 65.944C153.733 65.9091 154.648 65.8749 155.562 65.8412L161.041 65.6464C201.163 64.2691 239.589 64.014 252.445 63.9668L254.711 63.9597C254.921 63.9592 255.118 63.9588 255.3 63.9584H258.637ZM205.77 166.717V320.866L338.785 243.795L205.77 166.717Z" fill="white"/>
</svg>
